<?xml version="1.0" encoding="UTF-8" standalone="no"?><svg viewBox="0 0 800 800" xmlns="http://www.w3.org/2000/svg" xmlns:xlink="http://www.w3.org/1999/xlink"><style>:root>svg{display:none}:root>svg:target{display:block}</style><svg viewBox="0 0 20 20" id="icon-github" xmlns="http://www.w3.org/2000/svg"><path d="M10 0c5.523 0 10 4.59 10 10.253 0 4.529-2.862 8.371-6.833 9.728-.507.101-.687-.219-.687-.492 0-.338.012-1.442.012-2.814 0-.956-.32-1.58-.679-1.898 2.227-.254 4.567-1.121 4.567-5.059 0-1.12-.388-2.034-1.03-2.752.104-.259.447-1.302-.098-2.714 0 0-.838-.275-2.747 1.051A9.396 9.396 0 0 0 10 4.958a9.375 9.375 0 0 0-2.503.345C5.586 3.977 4.746 4.252 4.746 4.252c-.543 1.412-.2 2.455-.097 2.714-.639.718-1.03 1.632-1.03 2.752 0 3.928 2.335 4.808 4.556 5.067-.286.256-.545.708-.635 1.371-.57.262-2.018.715-2.91-.852 0 0-.529-.985-1.533-1.057 0 0-.975-.013-.068.623 0 0 .655.315 1.11 1.5 0 0 .587 1.83 3.369 1.21.005.857.014 1.665.014 1.909 0 .271-.184.588-.683.493C2.865 18.627 0 14.783 0 10.253 0 4.59 4.478 0 10 0" fill="#000" fill-rule="evenodd"/></svg><svg viewBox="0 0 32 32" fill="none" id="icon-gmail" xmlns="http://www.w3.org/2000/svg"><path d="M2 11.956c0-3.485 0-5.228.678-6.559a6.222 6.222 0 0 1 2.72-2.719C6.727 2 8.47 2 11.955 2h8.088c3.485 0 5.228 0 6.559.678a6.222 6.222 0 0 1 2.719 2.72C30 6.727 30 8.47 30 11.955v8.088c0 3.485 0 5.228-.678 6.559a6.222 6.222 0 0 1-2.72 2.719C25.273 30 23.53 30 20.045 30h-8.088c-3.485 0-5.228 0-6.559-.678a6.222 6.222 0 0 1-2.719-2.72C2 25.273 2 23.53 2 20.045v-8.088Z" fill="#fff"/><path d="m22.052 8.523-5.988 4.672L9.94 8.523v.001l.008.007v6.542l6.047 4.774 6.057-4.59V8.524Z" fill="#EA4335"/><path d="m23.623 7.386-1.572 1.137v6.735l4.947-3.799V9.171s-.6-3.268-3.375-1.785Z" fill="#FBBC05"/><path d="M22.05 15.258v8.734h3.793s1.079-.11 1.157-1.34V11.458l-4.95 3.799Z" fill="#34A853"/><path d="M9.948 24v-8.927l-.008-.006L9.948 24ZM9.94 8.524l-1.564-1.13C5.602 5.91 5 9.177 5 9.177v2.288l4.94 3.602V8.524Z" fill="#C5221F"/><path d="M9.94 8.524v6.543l.008.006V8.531l-.008-.007Z" fill="#C5221F"/><path d="M5 11.467v11.192A1.35 1.35 0 0 0 6.157 24h3.792l-.009-8.933-4.94-3.6Z" fill="#4285F4"/></svg><svg viewBox="0 0 512 512" xml:space="preserve" id="icon-kwork" xmlns="http://www.w3.org/2000/svg"><path d="M344.969 211.875H167.031c-10.096 0-18.281 8.185-18.281 18.281s8.185 18.281 18.281 18.281v12.188c0 10.096 8.185 18.281 18.281 18.281 10.096 0 18.281-8.185 18.281-18.281v-12.188h104.812v12.188c0 10.096 8.185 18.281 18.281 18.281 10.096 0 18.281-8.185 18.281-18.281v-12.188c10.096 0 18.281-8.185 18.281-18.281s-8.183-18.281-18.279-18.281zM256 126.562c-20.193 0-36.562 16.37-36.562 36.562h73.125c-.001-20.192-16.37-36.562-36.563-36.562z"/><path d="M256 0C114.615 0 0 114.615 0 256s114.615 256 256 256 256-114.615 256-256S397.385 0 256 0zm156 365.438C412 385.63 395.63 402 375.438 402H136.562C116.37 402 100 385.63 100 365.438v-165.75c0-20.193 16.37-36.562 36.562-36.562h46.312C182.875 122.739 215.614 90 256 90s73.125 32.739 73.125 73.125h46.312c20.193 0 36.562 16.37 36.562 36.562v165.751z"/></svg></svg>