<?xml version="1.0" standalone="no"?>
<!DOCTYPE svg PUBLIC "-//W3C//DTD SVG 20010904//EN"
 "http://www.w3.org/TR/2001/REC-SVG-20010904/DTD/svg10.dtd">
<svg version="1.0" xmlns="http://www.w3.org/2000/svg"
 width="351.000000pt" height="125.000000pt" viewBox="0 0 351.000000 125.000000"
 preserveAspectRatio="xMidYMid meet">

<g transform="translate(0.000000,125.000000) scale(0.100000,-0.100000)"
fill="#ffffff" stroke="none">
<path d="M42 718 c3 -162 4 -175 26 -206 90 -125 292 -63 292 91 0 63 -30 118
-80 146 -68 38 -141 23 -194 -39 l-26 -32 0 106 c0 68 -4 106 -11 106 -7 0 -9
-55 -7 -172z m234 7 c59 -39 79 -115 47 -182 -22 -47 -66 -73 -125 -73 -111 0
-176 137 -106 225 43 54 126 68 184 30z"/>
<path d="M450 670 c0 -140 4 -220 10 -220 6 0 10 80 10 220 0 140 -4 220 -10
220 -6 0 -10 -80 -10 -220z"/>
<path d="M2080 875 c0 -8 7 -15 15 -15 8 0 15 7 15 15 0 8 -7 15 -15 15 -8 0
-15 -7 -15 -15z"/>
<path d="M3150 733 c0 -138 2 -162 21 -199 65 -135 259 -111 299 37 27 98 -51
199 -155 199 -46 0 -86 -21 -119 -62 l-26 -33 0 108 c0 64 -4 107 -10 107 -6
0 -10 -59 -10 -157z m219 2 c52 -26 81 -71 81 -123 0 -88 -56 -142 -146 -142
-40 0 -51 5 -84 38 -51 51 -59 98 -28 160 36 72 112 101 177 67z"/>
<path d="M652 753 c-96 -47 -116 -181 -38 -259 140 -140 354 42 243 207 -42
64 -134 87 -205 52z m156 -32 c72 -51 75 -160 7 -220 -61 -54 -163 -38 -205
32 -79 129 76 275 198 188z"/>
<path d="M1042 753 c-96 -47 -116 -181 -38 -259 140 -140 354 42 243 207 -42
64 -134 87 -205 52z m156 -32 c72 -51 75 -160 7 -220 -61 -54 -163 -38 -205
32 -79 129 76 275 198 188z"/>
<path d="M1461 753 c-18 -9 -42 -31 -52 -47 l-19 -31 0 43 c0 23 -4 42 -10 42
-6 0 -10 -58 -10 -155 0 -97 4 -155 10 -155 6 0 10 40 10 99 0 85 3 102 23
132 62 93 189 87 239 -12 13 -25 18 -58 18 -126 0 -55 4 -93 10 -93 6 0 10 38
10 93 0 68 5 101 18 126 50 99 177 105 239 12 20 -30 23 -47 23 -132 0 -59 4
-99 10 -99 6 0 10 40 10 101 0 123 -14 159 -77 196 -77 45 -168 21 -209 -53
l-17 -32 -21 31 c-12 16 -33 39 -48 50 -37 27 -114 32 -157 10z"/>
<path d="M2314 752 c-17 -11 -40 -33 -52 -48 l-21 -29 -1 43 c0 23 -4 42 -10
42 -6 0 -10 -58 -10 -155 0 -97 4 -155 10 -155 6 0 10 35 10 85 0 55 6 99 16
125 39 97 155 117 230 39 27 -29 29 -36 34 -135 6 -132 25 -136 25 -4 -1 107
-14 144 -66 181 -45 31 -124 37 -165 11z"/>
<path d="M2700 750 c-52 -31 -73 -66 -78 -127 -7 -89 35 -151 117 -173 56 -15
99 -2 143 42 33 33 38 35 38 17 0 -58 -64 -129 -117 -129 -14 0 -23 -6 -23
-15 0 -34 97 9 132 57 21 30 23 44 23 140 0 115 -8 137 -68 182 -39 29 -123
32 -167 6z m134 -14 c96 -40 112 -164 30 -236 -64 -56 -171 -34 -207 43 -34
71 -11 146 55 187 39 23 76 25 122 6z"/>
<path d="M2082 610 c2 -92 7 -150 13 -150 6 0 11 58 13 150 2 130 0 150 -13
150 -13 0 -15 -20 -13 -150z"/>
<path d="M3016 483 c-8 -20 19 -44 40 -36 8 3 14 16 14 29 0 19 -5 24 -24 24
-13 0 -27 -8 -30 -17z"/>
</g>
</svg>
